<?xml version="1.0" encoding="utf-8"?>
<!-- Generator: Adobe Illustrator 27.0.1, SVG Export Plug-In . SVG Version: 6.00 Build 0)  -->
<svg version="1.1" id="Layer_1" xmlns="http://www.w3.org/2000/svg" xmlns:xlink="http://www.w3.org/1999/xlink" x="0px" y="0px"
	 viewBox="0 0 500 500" style="enable-background:new 0 0 500 500;" xml:space="preserve">
<style type="text/css">
	.st0{fill:#003B71;}
</style>
<path class="st0" d="M250,54C141.8,54,54,141.8,54,250c0,108.2,87.7,196,196,196c108.2,0,196-87.7,196-196
	C446,141.8,358.2,54,250,54z M302.9,250.2l-36.6-0.2c-0.3,55.2-0.6,123.3-0.6,123.3l-49.3-0.2c0,0,0.3-67.4,0.6-123.3l-24.7-0.1
	l0.2-49.3l24.5,0.1l0.1-22.3c0.1-20.2,9.9-51.6,52.2-51.4l38.1,0.3l-0.2,42.3c0,0-23.2-0.1-27.7-0.1c-4.5,0-10.9,2.2-11,11.8
	l-0.1,19.7l39.2,0.2L302.9,250.2z"/>
</svg>
