<?xml version="1.0" encoding="utf-8"?>
<!-- Generator: Adobe Illustrator 27.0.1, SVG Export Plug-In . SVG Version: 6.00 Build 0)  -->
<svg version="1.1" id="Layer_1" xmlns="http://www.w3.org/2000/svg" xmlns:xlink="http://www.w3.org/1999/xlink" x="0px" y="0px"
	 viewBox="0 0 500 500" style="enable-background:new 0 0 500 500;" xml:space="preserve">
<style type="text/css">
	.st0{fill:#003B71;}
</style>
<g>
	<path class="st0" d="M312.1,159.3H187.9c-15.4,0-27.8,12-27.8,26.8v127.8c0,14.8,12.5,26.8,27.8,26.8h124.1
		c15.4,0,27.8-12,27.8-26.8V186.1C339.9,171.3,327.4,159.3,312.1,159.3z M250,306.8c-31.3,0-56.8-25.5-56.8-56.8
		c0-31.3,25.5-56.8,56.8-56.8c31.3,0,56.8,25.5,56.8,56.8C306.8,281.3,281.3,306.8,250,306.8z M311,203.6c-7.3,0-13.3-5.9-13.3-13.3
		S303.6,177,311,177c7.3,0,13.3,6,13.3,13.3S318.3,203.6,311,203.6z"/>
	<path class="st0" d="M250,54C141.8,54,54,141.8,54,250s87.7,196,196,196s196-87.7,196-196S358.2,54,250,54z M358.7,313.9
		c0,25.1-20.9,45.5-46.6,45.5H187.9c-25.7,0-46.6-20.4-46.6-45.5V186.1c0-25.1,20.9-45.5,46.6-45.5h124.1
		c25.7,0,46.6,20.4,46.6,45.5V313.9z"/>
	<path class="st0" d="M250,211.9c-21,0-38,17.1-38,38.1c0,21,17.1,38,38,38c21,0,38.1-17.1,38.1-38C288,229,271,211.9,250,211.9z"/>
</g>
</svg>
