<?xml version="1.0" encoding="utf-8"?>
<!-- Generator: Adobe Illustrator 27.0.1, SVG Export Plug-In . SVG Version: 6.00 Build 0)  -->
<svg version="1.1" id="Layer_1" xmlns="http://www.w3.org/2000/svg" xmlns:xlink="http://www.w3.org/1999/xlink" x="0px" y="0px"
	 viewBox="0 0 500 500" style="enable-background:new 0 0 500 500;" xml:space="preserve">
<style type="text/css">
	.st0{fill:#003B71;}
</style>
<path class="st0" d="M124.9,454.4c34.4-19.8,98.3-19.8,169.4-18.6c71.2,1.1,114.1-54.8,132.1-78.5c-32.2,6.2-50.3,0-50.3,0
	c59.9-22,90.9-80.8,89.8-140c-7.9,15.8-29.9,21.5-29.9,21.5c25.4-45.2,48-124.8-5.6-215.2c-28.8,54.8-54.8,27.1-109,53.1
	c-2.8-16.9,14.7-26,14.7-26c-47.4-18.1-148.5,45.7-174.5,115.8c-10.7-17.5-9.6-37.8-9.6-37.8c-44.6,24.3-64.4,114.1-50.3,206.7
	C112.9,408.6,34,476.4,34,476.4s240-99.4,356.3-336.6C346.1,306.8,124.9,454.4,124.9,454.4z"/>
</svg>
