<?xml version="1.0" encoding="utf-8"?>
<!-- Generator: Adobe Illustrator 27.0.1, SVG Export Plug-In . SVG Version: 6.00 Build 0)  -->
<svg version="1.1" id="Layer_1" xmlns="http://www.w3.org/2000/svg" xmlns:xlink="http://www.w3.org/1999/xlink" x="0px" y="0px"
	 viewBox="0 0 2162.2 500" style="enable-background:new 0 0 2162.2 500;" xml:space="preserve">
<style type="text/css">
	.st0{fill:#003B71;}
	.st1{font-family:'AvenirNext-Bold';}
	.st2{font-size:421.5254px;}
	.st3{font-family:'AvenirNext-Regular';}
</style>
<g>
	<path class="st0" d="M112.4,457c35-20.1,99.8-20.1,172-18.9c72.3,1.1,115.8-55.6,134.2-79.7c-32.7,6.3-51,0-51,0
		c60.8-22.4,92.3-82,91.2-142.2c-8,16.1-30.4,21.8-30.4,21.8c25.8-45.9,48.7-126.7-5.7-218.5C393.4,75.1,367.1,47,312,73.4
		C309.1,56.2,326.9,47,326.9,47c-48.2-18.4-150.8,46.5-177.2,117.6c-10.9-17.8-9.7-38.4-9.7-38.4C94.7,150.8,74.6,242,88.9,336
		c11.3,74.5-68.8,143.4-68.8,143.4S263.8,378.4,382,137.6C337.1,307.1,112.4,457,112.4,457z"/>
	<text transform="matrix(1 0 0 1 560.5053 403.0577)"><tspan x="0" y="0" class="st0 st1 st2">K</tspan><tspan x="299.7" y="0" class="st0 st3 st2">Health</tspan></text>
</g>
</svg>
