<?xml version="1.0" encoding="utf-8"?>
<!-- Generator: Adobe Illustrator 27.0.1, SVG Export Plug-In . SVG Version: 6.00 Build 0)  -->
<svg version="1.1" id="Layer_1" xmlns="http://www.w3.org/2000/svg" xmlns:xlink="http://www.w3.org/1999/xlink" x="0px" y="0px"
	 viewBox="0 0 500 500" style="enable-background:new 0 0 500 500;" xml:space="preserve">
<style type="text/css">
	.st0{fill:#003B71;}
</style>
<path class="st0" d="M250,54C141.8,54,54,141.8,54,250s87.7,196,196,196s196-87.7,196-196S358.2,54,250,54z M352.4,199.7
	c0.1,2.2,0.1,4.5,0.1,6.7c-0.7,68.4-54.4,146.6-151.1,145.6c-29.7-0.3-57.2-9.2-80.3-24.1c4.1,0.5,8.3,0.8,12.5,0.9
	c24.6,0.3,47.4-7.8,65.5-21.4c-23-0.7-42.2-15.8-48.7-36.5c3.2,0.6,6.5,1,9.9,1c4.8,0.1,9.4-0.5,13.9-1.7c-24-5-41.9-26.1-41.6-51.2
	c0-0.2,0-0.4,0-0.6c7,3.9,15.1,6.4,23.7,6.7c-14-9.4-23.1-25.4-22.9-43.3c0.1-9.5,2.8-18.3,7.4-25.9c25.6,31.6,64.1,52.6,107.7,55.2
	c-0.8-3.8-1.3-7.7-1.2-11.8c0.3-28.6,24.1-51.5,53.1-51.2c15.1,0.2,28.7,6.6,38.2,16.8c12-2.2,23.3-6.4,33.5-12.2
	c-4,12-12.5,22.1-23.4,28.4c10.7-1.1,20.8-3.8,30.3-7.8C371.8,183.5,362.8,192.5,352.4,199.7z"/>
</svg>
