<?xml version="1.0" encoding="utf-8"?>
<!-- Generator: Adobe Illustrator 26.5.0, SVG Export Plug-In . SVG Version: 6.00 Build 0)  -->
<svg version="1.1" xmlns="http://www.w3.org/2000/svg" xmlns:xlink="http://www.w3.org/1999/xlink" x="0px" y="0px"
	 viewBox="0 0 1040 604.36" style="enable-background:new 0 0 1040 604.36;" xml:space="preserve">
<style type="text/css">
	.st0{fill:#FC8E8F;}
	.st1{fill:none;stroke:#FFFFFF;stroke-width:1.5;stroke-miterlimit:10;}
	.st2{fill:#FFFFFF;}
	.st3{display:none;}
	.st4{display:inline;opacity:0.15;}
	.st5{fill:#F8E3E4;}
</style>
<g id="background">
	<polygon class="st0" points="1043.58,603.71 0,605 0,0 1040,0 	"/>
</g>
<g id="image">
	<g>
		<path class="st1" d="M63.19,125.33c-5.39,7.19-5.5,16.23-1.59,15.11c18.5-5.32,85.52-40.55,94.47-45.98
			c31.91-19.37,2.06-19.02-11.24-14.54c-7.47,2.52-8.76,13.46-12.6,16.43c-2.46,1.9,2.08-10.57,1.77-12.03
			c-0.58-2.74-12.86,3.89-16.07,6.86c-3.21,2.97-5.5,13.78-9.88,15.56c-1.42,0.58,4.88-12.72,0.82-12.22
			c-5.59,0.68-12.72,4.98-15.08,8.83s-5.37,14.54-8.64,15.36c-1.88,0.47,3.65-12.35-2.61-10.42
			C77.14,109.97,69.01,117.57,63.19,125.33z"/>
		<path class="st1" d="M99.23,98.3c-3.65,1.7-13.38,9.15-14.16,10.44"/>
		<path class="st1" d="M124.23,87.01c-3.61,2.05-13.21,7.91-13.98,9.19"/>
		<path class="st1" d="M147.18,79.24c-4.01,1.08-12.11,4.03-13.18,5.08"/>
	</g>
	<path class="st2" d="M110.44,285.5c0.24-1.04,0.76-3.46,0.72-5.38c-0.05-2.21-1.14-6.15-3.33-8.19c0.59-1.23,0.95-3.23-0.59-4.86
		c-1.04-1.1-2.62-1.92-3.78-2.18c0.63-2.98,1.56-11.55-7.15-16.03c-2.6-1.34-4.87,0.42-6.13,2.08c-1.53-2.14-3.19-3.95-10.06-4.59
		c0.41-0.72,0.85-1.84,0.2-3.15c-1.01-2.02-4.72-4.18-9.6-4.19c-2.91-0.01-5.64,1.52-6.95,2.25c-0.21,0.12-0.44,0.25-0.57,0.31
		c-0.15-0.01-0.47-0.04-0.78-0.07c-12.54-1.19-23.52,6.77-25.81,11.68c-0.26,0.55-0.26,0.91-0.07,1.49c0.6,1.77,2.41,2.6,6.53,4.19
		c1.61,0.62,3.28,1.26,3.78,1.69c0.52,0.45,0.48,1.18,0.35,2.42c-0.15,1.46-0.34,3.29,1.11,4.85c3.38,3.66,5.96,4.83,7.11,5.2
		c0.16,2.2,1.02,9.86,5,14.23c0.43,0.47,0.36,0.72,0.11,1.4c-0.09,0.25-0.21,0.56-0.25,0.9c0,0.01,0,0.01,0,0.02l0,0
		c-0.07,0.49,0.01,1.04,0.48,1.6c4.5,5.29,8.21,5.58,10.66,5.76c0.59,0.05,1.1,0.08,1.48,0.19c0,0.96,0.33,2.79,2.54,4.46
		c0.94,0.71,2.76,0.75,4.53,0.79c0.7,0.02,1.36,0.03,1.84,0.09c0.47,0.06,0.93,0.68,1.42,1.34c0.7,0.94,1.5,2.01,2.85,2.22
		c3.38,0.52,4.96-0.39,5.62-0.99c2.75,0.56,8.88,3.63,9.34,4.99c0.54,1.58,5.38,7.04,8.11,5.14c1.74-1.22,3.25-4.73,3.86-7.85
		C113.86,302.82,113.63,288.66,110.44,285.5z M103.1,266.12l-0.47-0.31l0.53,0.21C103.14,266.06,103.12,266.09,103.1,266.12z
		 M43.64,257.38c-2.53-0.97-6.34-2.44-6.75-3.65c-0.04-0.11-0.05-0.21,0.06-0.37c5.3-7.67,12.16-10.67,24.16-10.37
		c-3.99,3.21-11.1,11.24-12.92,16.47C47.4,258.91,45.43,258.07,43.64,257.38z M48.77,263.12c0.06-0.59,0.12-1.21,0.06-1.81
		l-0.45-1.52c0.87-4.04,12.64-15.39,15.35-16.74c0.2-0.08,0.45-0.22,0.81-0.42c1.28-0.72,3.68-2.06,6.17-2.05
		c4.46,0.01,7.53,1.99,8.19,3.32c0.38,0.75,0.32,1.38-0.13,2.07c-0.08,0.12-0.23,0.28-0.3,0.37c-3.69,0.44-8.56,4.77-11.97,8.53
		c-4.97,5.48-9.36,13.63-10.2,17.1c-1.08-0.43-4.03-2.2-6.83-5.23C48.5,265.7,48.63,264.44,48.77,263.12z M61.38,287.35
		c-3.84-4.9-4.42-14.9-4.42-15l-0.01-0.19c-1.13-2.7,4.52-9.38,10.73-16.23c4.85-5.35,9.02-8.29,11.45-8.09l0,0c0,0,0.01,0,0.01,0
		c7.33,0.53,8.48,2.17,10.06,4.42l0.11,0.16c-0.81,1.38-4.67,5.72-8.42,9.95c-7.19,8.1-15.25,18-18.65,24.07
		C62.76,287.09,61.97,288.1,61.38,287.35z M71.52,295.34c-2.32-0.17-5.5-0.42-9.57-5.21c-0.09-0.1-0.27-1.34-0.27-1.46
		c1.04-4.8,12.73-16.65,20.38-25.26c4.28-4.82,7.01-7.91,8.22-9.63l0.02,0.03l0.19-0.34c0.21-0.32,0.35-0.58,0.43-0.78
		c0.17-0.3,2.15-3.73,4.67-2.43c9.01,4.64,6.47,13.98,6.14,15.09c-1.72,2.6-7.29,10.17-13.3,17.23
		c-9.52,11.18-13.29,13.02-14.58,13.24C73.19,295.49,72.41,295.41,71.52,295.34z M79.98,300.77c-1.23-0.03-3.08-0.07-3.62-0.47
		c-1.56-1.17-2.48-3.85-2.52-4.5c7.47-1.97,26.37-25.44,29.08-29.42c0.6,0.09,2.13,0.67,3.17,1.77c1.14,1.21,0.53,2.69,0.22,3.27
		c-5.26,1.32-12.29,13.29-18.24,22.13c-2.56,3.8-4.59,6.73-5.69,7.67C81.89,301.18,80.59,300.79,79.98,300.77z M86.31,304.44
		c-0.71-0.11-1.25-0.84-1.83-1.6c-0.37-0.5-0.75-1-1.21-1.38c1.24-1.37,3.07-4.05,5.78-8.06c5.17-7.68,12.92-19.18,17.57-20.42
		c1.84,1.59,2.92,5.18,2.96,7.19c0.04,1.65-0.41,3.83-0.65,4.86c-0.75,0.1-1.66,0.52-2.8,1.29c-5.03,3.39-13.9,14.11-14.82,17.4
		C91.06,303.95,89.33,304.9,86.31,304.44z M108.85,314.54c-0.42,0.33-0.82,0.49-1.24,0.41c-1.2-0.15-4.58-3.96-5.1-5.46
		c-0.74-2.19-7.76-4.94-10.81-5.75c1.59-3.22,10.36-12.79,15.31-16.13c1.35-0.91,2-1.04,2.25-1.04c2.24,1.69,3.32,14.48,2.62,20.68
		C111.59,309.86,110.42,313.3,108.85,314.54z"/>
	<g>
		<g>
			<path class="st2" d="M976.45,109.76l-1.43-0.55c-0.72-0.27-1.46-0.68-1.62-1.33c-0.23-0.81-0.82-1.21-1.51-1.23
				c-1.78-0.07-27.78,7-27.78,7l10.99-26.27c0.23-0.55-0.03-1.16-0.54-1.46c-0.53-0.29-1.12-0.8-1.38-1.65l-0.26-1.08
				c-0.47-1.97-3-2.53-4.27-0.95l-1.05,1.31c-1.07,1.32-3.12,1.19-4-0.28l-0.78-1.32c-1.05-1.72-3.62-1.52-4.37,0.35l-0.62,1.58
				c-0.62,1.58-2.63,2.04-3.88,0.92l-1.53-1.37c-1.52-1.34-3.91-0.37-4.06,1.64l-0.2,2.73c-0.14,1.65-1.83,2.69-3.36,2.08
				l-2.46-0.99c-1.87-0.75-3.8,0.98-3.26,2.92l0.46,1.62c0.45,1.63-0.85,3.21-2.53,3.09l-0.94-0.06c-2.01-0.14-3.3,2.09-2.19,3.77
				l0.76,1.14c0.94,1.42,0.17,3.34-1.49,3.72l-1.62,0.37c-1.98,0.45-2.58,2.98-1.01,4.27l0.79,0.64c1.31,1.08,1.15,3.14-0.33,4
				l-1.44,0.84c-1.75,1.03-1.56,3.59,0.3,4.36l5.67,2.32l-0.35-0.13l0.35,0.15l-3.86,4.61c-1.29,1.56-0.24,3.92,1.78,4l2.37,0.1
				c1.68,0.07,2.79,1.79,2.15,3.35l-0.64,1.58c-0.76,1.87,0.95,3.81,2.9,3.28l1.01-0.27c1.65-0.44,3.23,0.89,3.08,2.59l-0.13,1.33
				c-0.19,2.01,2.01,3.37,3.72,2.3l0.83-0.52c1.43-0.9,3.32-0.11,3.68,1.55l0.22,0.99c0.43,1.98,2.94,2.6,4.25,1.06l1.83-2.16
				c1.05-1.26,3.04-1.12,3.92,0.27l1.5,2.38c1.07,1.71,3.65,1.45,4.36-0.45l0.71-1.93c0.58-1.59,2.57-2.12,3.86-1.02l1.82,1.54
				c1.55,1.31,3.93,0.27,4.02-1.76l0.05-1.14c0.08-1.7,1.83-2.81,3.39-2.13l0.95,0.4c1.86,0.8,3.83-0.89,3.33-2.85l-0.4-1.53
				c-0.42-1.63,0.92-3.19,2.61-3.03l0.97,0.1c2.01,0.21,3.39-1.98,2.33-3.71l-1.45-2.34c-0.87-1.4-0.12-3.24,1.47-3.64l2.76-0.7
				c1.97-0.49,2.51-3.01,0.92-4.27l-0.9-0.71c-1.32-1.05-1.2-3.1,0.23-3.98l1.71-1.05C978.59,113.04,978.34,110.47,976.45,109.76z
				 M929.43,89.87l0.13-1.76c0.15-2.01,2.54-2.98,4.05-1.64l0.89,0.79c1.26,1.12,3.25,0.65,3.89-0.91l0.32-0.79
				c0.74-1.88,3.32-2.09,4.37-0.35l0.35,0.6c0.88,1.45,2.93,1.6,4,0.26l0.52-0.66c1.27-1.59,3.81-1.02,4.27,0.96l0.06,0.25
				c0.15,0.62,0.51,1.1,0.99,1.41l-0.56,1.32c-6.87-2.68-14.79-2.57-21.9,0.95c-0.79,0.39-1.71,0.9-2.44,1.36
				C928.86,91.25,929.38,90.59,929.43,89.87z M929.53,92.64c7.19-4.33,15.51-4.72,22.61-1.94l-10.5,25.09l26.37-6.86
				c2.63,11.38-2.78,23.53-13.7,28.93c-13.64,6.74-30.4,0.27-35.72-14.43C914.44,111.99,919.11,98.92,929.53,92.64z M973.64,114.43
				l-1.05,0.65c-1.43,0.9-1.51,2.94-0.17,3.95l0.21,0.16c1.62,1.23,1.1,3.78-0.87,4.27l-1.84,0.46c-1.61,0.4-2.36,2.26-1.48,3.66
				l0.94,1.52c1.1,1.76-0.39,4.01-2.45,3.68c-0.48-0.05-0.93,0.04-1.32,0.23c-1,0.49-1.6,1.63-1.29,2.8l0.19,0.71
				c0.53,1.98-1.48,3.7-3.35,2.83l-0.16-0.07c-1.59-0.65-3.34,0.5-3.39,2.22l0,0.17c-0.06,2.04-2.45,3.12-4.01,1.79l-1.16-0.99
				c-1.29-1.09-3.28-0.57-3.86,1.02l-0.41,1.12c-0.7,1.9-3.28,2.17-4.36,0.45l-0.99-1.57c-0.87-1.39-2.85-1.54-3.92-0.27l-1.21,1.42
				c-1.3,1.54-3.82,0.92-4.25-1.06l-0.04-0.22c-0.28-1.68-2.23-2.5-3.62-1.52l-0.16,0.11c-1.7,1.08-3.91-0.26-3.75-2.27l0.06-0.61
				c0.18-1.73-1.51-3.05-3.14-2.46l-0.12,0.04c-1.95,0.53-3.66-1.41-2.89-3.28l0.31-0.78c0.65-1.56-0.46-3.28-2.16-3.35l-1.5-0.08
				c-2.02-0.08-3.06-2.45-1.76-3.99l1.11-1.34c1.05-1.26,0.58-3.19-0.95-3.82l-1.72-0.7c-1.86-0.77-2.05-3.36-0.31-4.37l0.72-0.4
				c1.46-0.85,1.62-2.91,0.32-3.99l-0.14-0.11c-1.56-1.27-0.98-3.77,0.97-4.24l0.58-0.14c1.65-0.4,2.51-2.23,1.76-3.75l-0.13-0.27
				c-0.94-1.89,0.01-3.68,2.1-3.96l0,0c1.69,0.12,2.98-1.46,2.52-3.08l-0.21-0.78c-0.54-1.94,1.37-3.68,3.25-2.91l1.59,0.63
				c0.68,0.26,1.68,0,2.27-0.29c-12.06,7.8-16.56,24.29-8.78,37.17c6.61,10.99,20.39,15.89,32.46,11.56
				c13.47-4.87,20.38-18.82,17.38-31.83l1.66-0.43c0.18,0.73,0.68,1.39,1.48,1.7l0.65,0.24
				C975.11,110.78,975.36,113.36,973.64,114.43z"/>
		</g>
		<path class="st2" d="M936.54,97.68c1.69-0.28,2.48,3.75,2.82,5.71c0.41,2.41,1.5,8.43,1.5,8.43s-2.36-5.71-3.38-7.52
			C935.84,101.38,934.46,98.03,936.54,97.68z"/>
		<path class="st2" d="M923.64,108.71c0.88-1.47,4.46,0.54,6.18,1.56c2.1,1.25,7.39,4.32,7.39,4.32s-5.88-1.9-7.91-2.3
			C926,111.64,922.55,110.51,923.64,108.71z"/>
		<path class="st2" d="M925.81,126.68c-0.77-1.53,2.84-3.48,4.62-4.38c2.18-1.11,7.6-3.93,7.6-3.93s-4.75,3.95-6.18,5.45
			C929.56,126.25,926.76,128.56,925.81,126.68z"/>
		<path class="st2" d="M939.74,135.59c-1.68-0.34-0.99-4.38-0.6-6.34c0.47-2.4,1.6-8.41,1.6-8.41s0.18,6.17,0.48,8.22
			C941.71,132.37,941.81,136,939.74,135.59z"/>
		<path class="st2" d="M952.83,132.66c-1.48,0.85-3.63-2.65-4.63-4.37c-1.23-2.12-4.34-7.38-4.34-7.38s4.2,4.53,5.78,5.87
			C952.2,128.94,954.66,131.61,952.83,132.66z"/>
		<path class="st2" d="M961.4,120.61c-0.52,1.63-4.47,0.5-6.37-0.1c-2.33-0.74-8.18-2.51-8.18-2.51s6.16,0.5,8.23,0.43
			C958.43,118.3,962.04,118.6,961.4,120.61z"/>
	</g>
	<g>
		<path class="st1" d="M962.41,244.29c-1.2,0.87-3.65,2.23-3.09,3.47s2.74,1.85,3.3,2.93c0.57,1.09,0.33,2.48-0.93,3.68
			s-1.46,3.65,0.99,4.74c1.4,0.62,2.65,2.92,0.86,4.26c-1.02,0.76-2.7,3.38,1.25,4.61"/>
		<path class="st1" d="M955.52,280.96c-1.31-0.7-3.6-2.31-4.47-1.27c-0.87,1.03-0.47,3.27-1.19,4.25c-0.73,0.99-2.09,1.38-3.71,0.77
			s-3.93,0.28-3.84,2.96c0.05,1.53-1.47,3.66-3.46,2.63c-1.13-0.58-4.22-0.95-3.6,3.14"/>
		<g>
			<path class="st1" d="M955.76,280.23c0.37,5.6,4.64,10.36,10.42,11.14c6.6,0.89,12.68-3.74,13.57-10.34
				c0.89-6.6-3.74-12.68-10.34-13.57c-2.2-0.3-4.34,0.03-6.26,0.83"/>
		</g>
		<g>
			<path class="st1" d="M934.07,290.24L934.07,290.24c4.06,12.6,14.99,22.42,28.98,24.31c19.41,2.62,37.27-10.99,39.89-30.4
				c2.62-19.41-10.99-37.27-30.4-39.89c-4.14-0.56-6.28-0.79-10.14,0.03l0,0"/>
		</g>
	</g>
	<path class="st2" d="M1002.2,461.97c0.98-2.93,0.23-5.44-2.16-7.28c-0.13-2.92-1.85-5.05-5.03-6.17
		c-6.22-2.19-17.45-0.15-27.31,4.95c-8.65,4.48-13.43,9.28-18.96,14.83c-6.14,6.16-13.09,13.15-27.29,21.72l-43.09,19.68
		c0,0-1.01,0.52-0.77,0.95c0.25,0.44,1.33-0.04,1.33-0.04l42.71-19.51l0.01,0.03c16.1-5.43,26.34-6.36,35.38-7.17
		c8.08-0.73,15.07-1.37,24.13-5.06C991.8,474.55,1000.26,467.75,1002.2,461.97z M998.45,454.86l-62.24,28.43
		c5.16-3.25,9.78-6.64,14.53-10.15c6.4-4.72,13.01-9.6,21.36-14.3c6.87-3.87,17.73-6.44,23.24-5.51
		C996.87,453.59,997.89,454.12,998.45,454.86z M998.94,455.8c0.22,0.73,0.03,1.65-0.61,2.76c-2.96,5.11-14.6,12.93-23.5,15.79
		c-9.56,3.07-16.83,4.65-23.24,6.04c-4.76,1.03-9.2,2-13.99,3.42L998.94,455.8z M968.25,454.39c9.46-4.9,20.17-6.88,26.03-4.82
		c1.98,0.7,3.3,1.8,3.95,3.28c0.02,0.04,0.03,0.1,0.05,0.14c-0.65-0.34-1.45-0.6-2.41-0.76c-5.81-0.99-17.19,1.69-24.36,5.72
		c-8.45,4.76-15.11,9.67-21.55,14.42c-6.24,4.6-12.24,9.02-19.55,13.13c9.06-6.3,14.44-11.71,19.32-16.61
		C955.16,463.45,959.85,458.74,968.25,454.39z M980.77,477.91c-8.81,3.59-15.67,4.21-23.61,4.93c-7.24,0.66-15.26,1.39-26.38,4.4
		c7.68-2.9,13.94-4.26,20.89-5.77c6.45-1.4,13.77-2.99,23.41-6.09c9.4-3.02,21.29-11.06,24.46-16.53c0.41-0.7,0.67-1.35,0.79-1.95
		c1.02,1.4,1.22,3.07,0.57,4.99C999.1,467.22,990.83,473.81,980.77,477.91z"/>
	<g>
		<circle class="st1" cx="120.25" cy="483.73" r="32.6"/>
		<circle class="st1" cx="120.25" cy="483.73" r="11.09"/>
		<g>
			<path class="st2" d="M128.18,460.25l-7.2-3.71c-0.14-0.07-0.19-0.24-0.12-0.38l0.81-1.57c0.07-0.14,0.24-0.19,0.38-0.12l7.2,3.71
				c0.14,0.07,0.19,0.24,0.12,0.38l-0.81,1.57C128.49,460.27,128.32,460.32,128.18,460.25z"/>
			<path class="st2" d="M109.69,464.9l-5.56-5.89c-0.11-0.11-0.1-0.29,0.01-0.4l1.29-1.21c0.11-0.11,0.29-0.1,0.4,0.01l5.56,5.89
				c0.11,0.11,0.1,0.29-0.01,0.4l-1.29,1.21C109.98,465.02,109.8,465.02,109.69,464.9z"/>
			<path class="st2" d="M103.95,477.25l-1.64-7.94c-0.03-0.15,0.07-0.3,0.22-0.33l1.73-0.36c0.15-0.03,0.3,0.07,0.33,0.22l1.64,7.94
				c0.03,0.15-0.07,0.3-0.22,0.33l-1.73,0.36C104.13,477.5,103.98,477.41,103.95,477.25z"/>
			<path class="st2" d="M90.69,481.14l7.72-2.46c0.15-0.05,0.31,0.04,0.35,0.18l0.54,1.68c0.05,0.15-0.04,0.31-0.18,0.35l-7.72,2.46
				c-0.15,0.05-0.31-0.04-0.35-0.18l-0.54-1.68C90.46,481.34,90.54,481.18,90.69,481.14z"/>
			<path class="st2" d="M101.62,492.18l0.09-8.1c0-0.16,0.13-0.28,0.29-0.28l1.77,0.02c0.16,0,0.28,0.13,0.28,0.29l-0.09,8.1
				c0,0.16-0.13,0.28-0.29,0.28l-1.77-0.02C101.75,492.46,101.62,492.33,101.62,492.18z"/>
			<path class="st2" d="M96.72,500.58l6.82-4.38c0.13-0.08,0.31-0.05,0.39,0.09l0.96,1.49c0.08,0.13,0.05,0.31-0.08,0.39l-6.82,4.38
				c-0.13,0.08-0.31,0.05-0.39-0.08l-0.96-1.49C96.55,500.83,96.59,500.66,96.72,500.58z"/>
			<path class="st2" d="M113.53,508.78l-2.46-7.72c-0.05-0.15,0.04-0.31,0.18-0.35l1.68-0.54c0.15-0.05,0.31,0.04,0.35,0.18
				l2.46,7.72c0.05,0.15-0.04,0.31-0.18,0.35l-1.68,0.54C113.74,509.01,113.58,508.93,113.53,508.78z"/>
			<path class="st2" d="M122.35,509.97l7.72-2.46c0.15-0.05,0.31,0.04,0.35,0.18l0.54,1.68c0.05,0.15-0.04,0.31-0.18,0.35
				l-7.72,2.46c-0.15,0.05-0.31-0.04-0.35-0.18l-0.54-1.68C122.12,510.17,122.2,510.01,122.35,509.97z"/>
			<path class="st2" d="M115.93,467.56l7.4-3.31c0.14-0.06,0.31,0,0.37,0.14l0.72,1.61c0.06,0.14,0,0.31-0.14,0.37l-7.4,3.31
				c-0.14,0.06-0.31,0-0.37-0.14l-0.72-1.61C115.72,467.79,115.79,467.62,115.93,467.56z"/>
			<path class="st2" d="M133.31,475.2l-0.24-8.1c0-0.16,0.12-0.29,0.27-0.29l1.77-0.05c0.16,0,0.29,0.12,0.29,0.27l0.24,8.1
				c0,0.16-0.12,0.29-0.27,0.29l-1.77,0.05C133.44,475.48,133.31,475.35,133.31,475.2z"/>
			<path class="st2" d="M148.44,475.43l-6.34,5.05c-0.12,0.1-0.3,0.08-0.4-0.04l-1.1-1.38c-0.1-0.12-0.08-0.3,0.04-0.4l6.34-5.05
				c0.12-0.1,0.3-0.08,0.4,0.04l1.1,1.38C148.59,475.16,148.56,475.34,148.44,475.43z"/>
			<path class="st2" d="M140.88,484.45l4.38,6.82c0.08,0.13,0.05,0.31-0.08,0.39l-1.49,0.96c-0.13,0.08-0.31,0.05-0.39-0.08
				l-4.38-6.82c-0.08-0.13-0.05-0.31,0.09-0.39l1.49-0.96C140.62,484.28,140.79,484.32,140.88,484.45z"/>
			<path class="st2" d="M133.6,497.13l-6.82,4.38c-0.13,0.08-0.31,0.05-0.39-0.08l-0.96-1.49c-0.08-0.13-0.05-0.31,0.08-0.39
				l6.82-4.38c0.13-0.08,0.31-0.05,0.39,0.08l0.96,1.49C133.77,496.87,133.73,497.04,133.6,497.13z"/>
			<path class="st2" d="M135.39,500.14l7.92,1.73c0.15,0.03,0.25,0.18,0.22,0.34l-0.38,1.73c-0.03,0.15-0.18,0.25-0.34,0.22
				l-7.92-1.73c-0.15-0.03-0.25-0.18-0.22-0.34l0.38-1.73C135.09,500.21,135.24,500.11,135.39,500.14z"/>
		</g>
	</g>
</g>
<g id="block">
</g>
<g id="Header">
</g>
<g id="Nav">
</g>
<g id="grd" class="st3">
	<g class="st4">
		<path class="st5" d="M110.1,709.31c-19.99,0-39.99,0-59.98,0c-1.51-1.25-1.73-2.84-1.81-4.46c-0.08-1.6-0.05-3.2-0.05-4.8
			c0-260.49,0-520.98,0.04-781.47c0-3.12-1.03-6.47,1.82-9.27c19.99,0,39.99,0,59.98,0c1.51,1.25,1.73,2.84,1.81,4.46
			c0.08,1.6,0.05,3.2,0.05,4.8c0,260.49,0,520.99-0.04,781.48C111.92,703.17,112.95,706.51,110.1,709.31z"/>
		<path class="st5" d="M190.08,709.31c-19.99,0-39.99,0-59.98,0c-1.51-1.25-1.73-2.84-1.81-4.46c-0.08-1.6-0.05-3.2-0.05-4.8
			c0-260.49,0-520.98,0.04-781.47c0-3.12-1.03-6.47,1.82-9.27c19.99,0,39.99,0,59.98,0c1.51,1.25,1.73,2.84,1.81,4.46
			c0.08,1.6,0.05,3.2,0.05,4.8c0,260.49,0,520.99-0.04,781.48C191.9,703.17,192.93,706.51,190.08,709.31z"/>
		<path class="st5" d="M210.08-90.69c19.99,0,39.99,0,59.98,0c1.51,1.25,1.73,2.84,1.81,4.46c0.08,1.6,0.05,3.2,0.05,4.8
			c0,260.49,0,520.99-0.04,781.48c0,3.12,1.02,6.46-1.82,9.26c-19.99,0-39.99,0-59.98,0c-1.51-1.25-1.73-2.84-1.81-4.46
			c-0.08-1.6-0.05-3.2-0.05-4.8c0-260.49,0-520.98,0.04-781.47C208.26-84.55,207.23-87.89,210.08-90.69z"/>
		<path class="st5" d="M350.04,709.31c-19.99,0-39.99,0-59.98,0c-1.51-1.25-1.73-2.84-1.81-4.46c-0.08-1.6-0.05-3.2-0.05-4.8
			c0-260.49,0-520.98,0.04-781.47c0-3.12-1.03-6.47,1.82-9.27c19.99,0,39.99,0,59.98,0c1.51,1.25,1.73,2.84,1.81,4.46
			c0.08,1.6,0.05,3.2,0.05,4.8c0,260.49,0,520.99-0.04,781.48C351.86,703.17,352.89,706.51,350.04,709.31z"/>
		<path class="st5" d="M370.04-90.69c19.99,0,39.99,0,59.98,0c1.51,1.25,1.73,2.84,1.81,4.46c0.08,1.6,0.05,3.2,0.05,4.8
			c0,260.49,0,520.99-0.04,781.48c0,3.12,1.02,6.46-1.82,9.26c-19.99,0-39.99,0-59.98,0c-1.51-1.25-1.73-2.84-1.81-4.46
			c-0.08-1.6-0.05-3.2-0.05-4.8c0-260.49,0-520.98,0.04-781.47C368.22-84.55,367.19-87.89,370.04-90.69z"/>
		<path class="st5" d="M510,709.31c-19.99,0-39.99,0-59.98,0c-1.51-1.25-1.73-2.84-1.81-4.46c-0.08-1.6-0.05-3.2-0.05-4.8
			c0-260.49,0-520.98,0.04-781.47c0-3.12-1.03-6.47,1.82-9.27c19.99,0,39.99,0,59.98,0c1.51,1.25,1.73,2.84,1.81,4.46
			c0.08,1.6,0.05,3.2,0.05,4.8c0,260.49,0,520.99-0.04,781.48C511.82,703.17,512.85,706.51,510,709.31z"/>
		<path class="st5" d="M589.98,709.31c-19.99,0-39.99,0-59.98,0c-1.51-1.25-1.73-2.84-1.81-4.46c-0.08-1.6-0.05-3.2-0.05-4.8
			c0-260.49,0-520.98,0.04-781.47c0-3.12-1.03-6.47,1.82-9.27c19.99,0,39.99,0,59.98,0c1.51,1.25,1.73,2.84,1.81,4.46
			c0.08,1.6,0.05,3.2,0.05,4.8c0,260.49,0,520.99-0.04,781.48C591.8,703.17,592.83,706.51,589.98,709.31z"/>
		<path class="st5" d="M609.98-90.69c19.99,0,39.99,0,59.98,0c1.51,1.25,1.73,2.84,1.81,4.46c0.08,1.6,0.05,3.2,0.05,4.8
			c0,260.49,0,520.99-0.04,781.48c0,3.12,1.02,6.46-1.82,9.26c-19.99,0-39.99,0-59.98,0c-1.51-1.25-1.73-2.84-1.81-4.46
			c-0.08-1.6-0.05-3.2-0.05-4.8c0-260.49,0-520.98,0.04-781.47C608.15-84.55,607.13-87.89,609.98-90.69z"/>
		<path class="st5" d="M689.96-90.69c19.99,0,39.99,0,59.98,0c1.51,1.25,1.73,2.84,1.81,4.46c0.08,1.6,0.05,3.2,0.05,4.8
			c0,260.49,0,520.99-0.04,781.48c0,3.12,1.02,6.46-1.82,9.26c-19.99,0-39.99,0-59.98,0c-1.51-1.25-1.73-2.84-1.81-4.46
			c-0.08-1.6-0.05-3.2-0.05-4.8c0-260.49,0-520.98,0.04-781.47C688.13-84.55,687.11-87.89,689.96-90.69z"/>
		<path class="st5" d="M829.92,709.31c-19.99,0-39.99,0-59.98,0c-1.51-1.25-1.73-2.84-1.81-4.46c-0.08-1.6-0.05-3.2-0.05-4.8
			c0-260.49,0-520.98,0.04-781.47c0-3.12-1.03-6.47,1.82-9.27c19.99,0,39.99,0,59.98,0c1.51,1.25,1.73,2.84,1.81,4.46
			c0.08,1.6,0.05,3.2,0.05,4.8c0,260.49,0,520.99-0.04,781.48C831.74,703.17,832.76,706.51,829.92,709.31z"/>
		<path class="st5" d="M909.9,709.31c-19.99,0-39.99,0-59.98,0c-1.51-1.25-1.73-2.84-1.81-4.46c-0.08-1.6-0.05-3.2-0.05-4.8
			c0-260.49,0-520.98,0.04-781.47c0-3.12-1.03-6.47,1.82-9.27c19.99,0,39.99,0,59.98,0c1.51,1.25,1.73,2.84,1.81,4.46
			c0.08,1.6,0.05,3.2,0.05,4.8c0,260.49,0,520.99-0.04,781.48C911.72,703.17,912.74,706.51,909.9,709.31z"/>
		<path class="st5" d="M989.88,709.31c-19.99,0-39.99,0-59.98,0c-1.51-1.25-1.73-2.84-1.81-4.46c-0.08-1.6-0.05-3.2-0.05-4.8
			c0-260.49,0-520.98,0.04-781.47c0-3.12-1.03-6.47,1.82-9.27c19.99,0,39.99,0,59.98,0c1.51,1.25,1.73,2.84,1.81,4.46
			c0.08,1.6,0.05,3.2,0.05,4.8c0,260.49,0,520.99-0.04,781.48C991.7,703.17,992.72,706.51,989.88,709.31z"/>
	</g>
</g>
</svg>
