<?xml version="1.0" encoding="UTF-8"?><svg id="Layer_1" xmlns="http://www.w3.org/2000/svg" viewBox="0 0 334.29 58.75"><defs><style>.cls-1{fill:#ed8223;}</style></defs><path class="cls-1" d="M10.22,58.75c-2.26,0-4.18-1.18-5.76-3.53C1.48,50.71,0,43.46,0,33.48,0,24.17,2.09,16.39,6.26,10.15,10.44,3.91,16.08,.55,23.18,.07c.58-.05,1.42-.07,2.52-.07,5.9,0,10.44,1.38,13.61,4.14s4.75,6.42,4.75,10.98-2.03,8.3-6.08,11.23c-4.06,2.93-9.56,4.49-16.52,4.68-.14,0-.59,3.34-1.33,10.01-.75,6.67-1.79,11.29-3.13,13.86-1.35,2.57-3.61,3.85-6.78,3.85Zm.8-3.74c1.92,0,3.26-1.92,4.03-5.76,.38-1.92,.67-3.77,.86-5.54,.19-1.78,.4-4.01,.61-6.7,.22-2.69,.42-4.78,.61-6.26-1.34-.1-2.69-.48-4.03-1.15s-2.02-1.63-2.02-2.88c0-.72,.14-1.15,.43-1.3,2.88,1.44,4.87,2.16,5.98,2.16,.1-.38,.35-1.78,.76-4.18,.41-2.4,.98-4.49,1.73-6.26,.74-1.78,1.96-2.66,3.64-2.66,.62,0,1.14,.11,1.55,.32,.41,.22,.61,.42,.61,.61s-.02,.31-.07,.36c-2.02,3.55-3.36,7.54-4.03,11.95,5.47-.19,9.9-1.42,13.28-3.67,3.38-2.26,5.08-5.14,5.08-8.64s-1.32-6.31-3.96-8.42-6.16-3.17-10.55-3.17-8.05,1.15-10.98,3.46c-2.54,2.02-4.55,4.54-6.01,7.56s-2.58,6.2-3.35,9.54-1.15,7.04-1.15,11.12,.5,8.21,1.51,12.38c.48,2.11,1.19,3.83,2.12,5.15,.93,1.32,2.05,1.98,3.35,1.98Z"/><path class="cls-1" d="M54.86,28.23h1.51c.86,0,1.3,.38,1.3,1.15,0,.24-.02,.41-.07,.5l-2.59,13.18c-.1,.58-.14,.98-.14,1.22,0,1.87,.65,2.81,1.94,2.81h.29c.82-.1,1.56-.33,2.23-.72,.33-.19,.65-.37,.94-.54,.29-.17,.59-.4,.9-.68,.31-.29,.56-.52,.76-.68,.19-.17,.42-.42,.68-.76s.46-.56,.58-.68,.3-.35,.54-.68l.5-.79c.14-.14,.31-.22,.5-.22s.4,.32,.61,.97c.22,.65,.32,1.14,.32,1.48s-.02,.55-.07,.65c-1.01,1.44-2.37,2.77-4.07,4-1.7,1.22-3.3,1.84-4.79,1.84s-2.64-.47-3.46-1.4c-.82-.94-1.22-2.17-1.22-3.71v-.36c-.58,1.73-1.69,3.13-3.35,4.21s-3.4,1.62-5.22,1.62c-4.03,0-6.05-2.26-6.05-6.77,0-2.45,.65-5.02,1.94-7.7,1.3-2.69,3.11-5,5.44-6.95,2.33-1.94,4.6-2.92,6.8-2.92s3.31,.5,3.31,1.51l-.06,.42Zm-10.65,19.36c1.82,0,3.36-.91,4.61-2.74,1.25-1.82,2.11-3.65,2.59-5.47l2.74-9.86c-.1,0-.23,0-.4-.04-.17-.02-.3-.04-.4-.04-3.22,0-6.1,1.63-8.64,4.9-2.54,3.26-3.82,6.29-3.82,9.07,0,2.79,1.11,4.18,3.32,4.18Z"/><path class="cls-1" d="M62.35,43.63c0-.62,.02-1.1,.07-1.44,.53-4.99,1.75-9.6,3.67-13.82,.43-.91,1.15-1.37,2.16-1.37s1.51,.41,1.51,1.22c0,.14-.24,.82-.72,2.02s-.86,2.23-1.15,3.1c-1.06,2.83-1.68,5.98-1.87,9.43v.72c0,2.69,1.06,4.03,3.17,4.03,1.49-.05,2.8-.73,3.92-2.05,1.13-1.32,2.2-3.61,3.2-6.88l3.02-9.72c.38-1.15,1.08-1.73,2.09-1.73,.48,0,.89,.12,1.22,.36s.5,.48,.5,.72-.02,.42-.07,.54-.29,.82-.72,2.09c-.43,1.27-.83,2.46-1.19,3.56-.36,1.1-.77,2.72-1.22,4.86-.46,2.14-.68,3.83-.68,5.08,0,2.21,.56,3.31,1.69,3.31s2.35-.56,3.67-1.69c1.32-1.13,2.34-2.2,3.06-3.2,.53-.67,1.08-1.01,1.66-1.01,.86,0,1.3,.36,1.3,1.08,0,.34-.1,.62-.29,.86-.96,1.63-2.42,3.17-4.39,4.61-1.97,1.44-3.82,2.16-5.54,2.16-2.69,0-4.03-1.68-4.03-5.04-1.92,3.41-4.46,5.11-7.63,5.11-2.06,0-3.65-.61-4.75-1.84-1.11-1.21-1.66-2.91-1.66-5.07Z"/><path class="cls-1" d="M95.18,50.19c-4.51,0-6.77-3.34-6.77-10.01,0-4.7,.96-10.46,2.88-17.28,1.39-5.09,3.42-9.7,6.08-13.82,2.66-4.13,5.51-6.19,8.53-6.19,1.34,0,2.4,.5,3.17,1.51s1.15,2.23,1.15,3.67c0,4.13-1.81,8.68-5.44,13.64-3.62,4.97-7.62,9.11-11.99,12.42-.38,2.54-.58,4.71-.58,6.48,0,4.37,1.39,6.55,4.18,6.55,2.64,0,5.54-1.87,8.71-5.62,.19-.19,.44-.29,.76-.29s.61,.12,.9,.36,.43,.59,.43,1.04-.22,.92-.65,1.4c-3.63,4.1-7.42,6.14-11.36,6.14ZM104.69,6.99c-1.58,0-3.28,1.58-5.08,4.75s-3.25,6.52-4.36,10.04c-1.1,3.53-1.85,6.52-2.23,8.96,9.07-9.22,13.61-16.39,13.61-21.53,0-1.48-.65-2.22-1.94-2.22Z"/><path class="cls-1" d="M108,20.02c-.14,0-.22-.46-.22-1.37l.79-10.94c.1-1.49,.89-2.23,2.38-2.23,.48,0,.91,.14,1.3,.43,.38,.29,.58,.58,.58,.86s-.05,.58-.14,.86l-3.6,11.23c-.25,.77-.61,1.16-1.09,1.16Z"/><path class="cls-1" d="M130.68,30.46c0,.82,.86,2.64,2.59,5.47s2.59,5.06,2.59,6.7-.38,3.12-1.15,4.46c1.58-.29,3.02-.98,4.32-2.09l1.08-.86c.29-.24,.62-.55,1.01-.94s.65-.67,.79-.86,.36-.46,.65-.79c.29-.33,.43-.53,.43-.58,.1-.1,.19-.14,.29-.14,.29,0,.59,.25,.9,.76,.31,.5,.47,.91,.47,1.22s-.02,.49-.07,.54c-4.03,4.7-9.07,7.06-15.12,7.06-3.07-.05-5.59-.62-7.56-1.73-1.97-1.1-3.12-2.28-3.46-3.53,.24-.58,.6-1.34,1.08-2.3l2.88-5.62c1.44-2.78,3.02-5.88,4.75-9.29,.53-1.06,1.15-1.58,1.87-1.58s1.26,.19,1.62,.58c.36,.38,.54,.84,.54,1.37l-.5,2.15Zm-2.52,17.06c2.83,0,4.25-1.3,4.25-3.89s-1.46-6.07-4.39-10.44l-.72,1.51-5.26,9.86c1.44,1.98,3.48,2.96,6.12,2.96Z"/><path class="cls-1" d="M181.44,23.26c2.88-.14,5.26-1.39,7.13-3.74s2.81-5.02,2.81-7.99c0-2.02-.48-3.49-1.44-4.43-.96-.94-2.47-1.4-4.54-1.4-4.66,0-8.87,1.57-12.64,4.72-3.77,3.14-6.6,7.01-8.5,11.59s-2.86,9.34-2.88,14.26c-.02,4.92,1.08,9,3.31,12.24,2.23,3.24,5.48,4.86,9.76,4.86s7.87-.96,10.8-2.88,5.88-4.68,8.86-8.28c.1-.1,.23-.14,.4-.14s.41,.14,.72,.43,.47,.52,.47,.68v.32c-2.02,3.94-5.04,7.15-9.07,9.65-4.08,2.5-8.72,3.74-13.93,3.74s-9.19-1.85-11.95-5.54c-2.76-3.7-4.14-8.45-4.14-14.26,.05-4.03,.77-8.1,2.16-12.2,1.39-4.1,3.3-7.86,5.72-11.27s5.51-6.19,9.25-8.35,7.78-3.24,12.1-3.24c2.93,0,5.24,.79,6.95,2.38,1.7,1.58,2.56,3.82,2.56,6.7,0,3.94-1.42,7.49-4.25,10.66s-6.38,4.75-10.66,4.75c-1.63,0-2.45-.55-2.45-1.66,0-.38,.14-.72,.43-1.01,.1-.1,.23-.17,.4-.22,.17-.05,.32-.11,.47-.18,.14-.07,.48-.11,1.01-.11l1.14-.08Z"/><path class="cls-1" d="M213.26,28.23h1.51c.86,0,1.3,.38,1.3,1.15,0,.24-.03,.41-.07,.5l-2.59,13.18c-.1,.58-.14,.98-.14,1.22,0,1.87,.65,2.81,1.94,2.81h.29c.82-.1,1.56-.33,2.23-.72,.34-.19,.65-.37,.94-.54s.59-.4,.9-.68,.56-.52,.76-.68c.19-.17,.42-.42,.68-.76,.26-.34,.46-.56,.58-.68s.3-.35,.54-.68l.5-.79c.14-.14,.31-.22,.5-.22s.4,.32,.61,.97c.22,.65,.32,1.14,.32,1.48s-.02,.55-.07,.65c-1.01,1.44-2.37,2.77-4.07,4-1.7,1.22-3.3,1.84-4.79,1.84s-2.64-.47-3.46-1.4c-.82-.94-1.22-2.17-1.22-3.71v-.36c-.58,1.73-1.69,3.13-3.35,4.21s-3.4,1.62-5.22,1.62c-4.03,0-6.05-2.26-6.05-6.77,0-2.45,.65-5.02,1.94-7.7,1.3-2.69,3.11-5,5.44-6.95,2.33-1.94,4.6-2.92,6.8-2.92s3.31,.5,3.31,1.51l-.06,.42Zm-10.66,19.36c1.82,0,3.36-.91,4.61-2.74,1.25-1.82,2.11-3.65,2.59-5.47l2.74-9.86c-.1,0-.23,0-.4-.04-.17-.02-.3-.04-.4-.04-3.22,0-6.1,1.63-8.64,4.9-2.54,3.26-3.82,6.29-3.82,9.07,.01,2.79,1.11,4.18,3.32,4.18Z"/><path class="cls-1" d="M238.96,45.58c0,1.15,.67,1.73,2.02,1.73h.58c2.3-.19,4.56-2.14,6.77-5.83,.29-.43,.64-.65,1.04-.65s.79,.18,1.15,.54,.54,.67,.54,.94-.02,.44-.07,.54c-1.58,2.69-3.35,4.63-5.29,5.83s-3.72,1.8-5.33,1.8-2.87-.4-3.78-1.19-1.37-1.91-1.37-3.35c0-2.11,.62-5.03,1.87-8.75s1.87-5.71,1.87-5.98-.16-.4-.47-.4-1.12,.59-2.41,1.76c-1.3,1.18-2.87,3.16-4.72,5.94s-3.35,5.9-4.5,9.36c-.43,1.01-.86,1.65-1.3,1.91-.43,.26-1.08,.4-1.94,.4s-1.42-.28-1.66-.83-.36-1.38-.36-2.48v-1.22c0-2.54,.29-5.45,.86-8.71,.58-3.26,1.34-6,2.3-8.21l.43-.86c.05-.1,.17-.28,.36-.54,.19-.26,.38-.43,.58-.5,.19-.07,.48-.11,.86-.11s.77,.14,1.15,.43,.58,.58,.58,.86c-.62,1.44-1.39,4.08-2.3,7.92-.82,3.55-1.27,6.53-1.37,8.93,2.4-6,5.11-10.55,8.14-13.64,3.02-3.1,5.42-4.64,7.2-4.64,.96,0,1.72,.24,2.27,.72s.83,.92,.83,1.33-.03,.66-.07,.76c-2.44,7.04-3.93,12.44-4.46,16.19Z"/><path class="cls-1" d="M279.64,8.14c0,3.07-.89,6.77-2.66,11.09-.62,1.49-1.66,3.46-3.1,5.9-1.44,2.45-2.47,4.15-3.1,5.11-.62,.96-1.82,2.71-3.6,5.26-1.78,2.54-2.74,3.94-2.88,4.18v1.15c0,4.22,1.32,6.34,3.96,6.34,3.21,0,5.95-1.63,8.21-4.9,.72-.72,1.37-.82,1.94-.29,.29,.29,.43,.65,.43,1.08,.1,.43-.05,.84-.43,1.22-1.49,1.87-3.02,3.36-4.61,4.46-1.58,1.1-3.37,1.66-5.36,1.66s-3.62-.6-4.9-1.8c-1.27-1.2-2.03-2.9-2.27-5.11-.62,1.92-1.68,3.58-3.17,4.97-1.49,1.39-3.18,2.09-5.08,2.09s-3.44-.72-4.64-2.16-1.8-3.31-1.8-5.62c0-3.84,1.32-7.48,3.96-10.91,2.64-3.43,5.52-5.15,8.64-5.15,1.06,0,1.99,.19,2.81,.58,1.1-7.44,2.78-13.37,5.04-17.78,2.26-4.42,4.99-6.62,8.21-6.62,1.2,0,2.2,.4,2.99,1.19s1.24,1.74,1.33,2.84l.08,1.22Zm-26.06,39.17c1.78,0,3.34-1.02,4.68-3.06,1.34-2.04,2.23-4.43,2.66-7.16l.94-7.06c-.86-.19-1.46-.29-1.8-.29-2.59,0-4.87,1.36-6.84,4.07s-2.95,5.51-2.95,8.39c0,1.68,.31,2.95,.94,3.82,.61,.85,1.41,1.29,2.37,1.29Zm20.45-39.96c-1.78,0-3.26,1.66-4.46,4.97-.62,1.68-1.26,3.58-1.91,5.69s-1.67,7.78-3.06,16.99c3.74-5.57,6.59-10.27,8.53-14.11s2.92-7.32,2.92-10.44c-.01-2.07-.68-3.1-2.02-3.1Z"/><path class="cls-1" d="M275.82,43.85c0-1.97,.5-4.49,1.51-7.56,2.11-6.43,3.82-9.65,5.11-9.65,.67,0,1.21,.13,1.62,.4,.41,.26,.61,.53,.61,.79s-.32,1.01-.97,2.23-1.49,3.32-2.52,6.3-1.55,5.33-1.55,7.06c0,2.5,1.01,3.74,3.02,3.74,2.3,0,4.99-1.7,8.06-5.11,.58-.62,1.18-.65,1.8-.07,.62,.48,.6,1.22-.07,2.23-3.41,4.03-6.87,6.05-10.37,6.05-1.87,0-3.38-.6-4.54-1.8-1.13-1.2-1.71-2.74-1.71-4.61Zm11.02-23.33c-1.92,0-2.88-.82-2.88-2.45,0-.86,.31-1.55,.94-2.05s1.44-.76,2.45-.76c1.78,0,2.66,.79,2.66,2.38,0,.77-.29,1.44-.86,2.02-.58,.57-1.35,.86-2.31,.86Z"/><path class="cls-1" d="M289.65,40.68c0-3.89,1.08-7.25,3.24-10.08s4.85-4.25,8.06-4.25c1.78,0,3.28,.5,4.5,1.51s1.84,2.33,1.84,3.96c0,2.59-1.25,4.85-3.74,6.77-2.5,1.92-5.86,3.17-10.08,3.74,.29,1.73,1,3.04,2.12,3.92,1.13,.89,2.56,1.33,4.28,1.33,4.03,0,8.14-2.04,12.31-6.12,.05-.05,.18-.07,.4-.07s.44,.13,.68,.4c.24,.26,.36,.58,.36,.94s-.1,.66-.29,.9c-1.25,1.68-3.2,3.26-5.87,4.75-2.66,1.49-5.4,2.23-8.21,2.23s-5.11-.91-6.91-2.74c-1.79-1.81-2.69-4.21-2.69-7.19Zm11.59-11.3c-2.06,0-3.89,1.12-5.47,3.35s-2.38,4.5-2.38,6.8c2.26-.19,4.6-.98,7.02-2.38,2.42-1.39,3.64-3,3.64-4.82,0-.96-.28-1.69-.83-2.2-.55-.5-1.21-.75-1.98-.75Z"/><path class="cls-1" d="M320.32,30.46c0,.82,.86,2.64,2.59,5.47s2.59,5.06,2.59,6.7-.38,3.12-1.15,4.46c1.58-.29,3.02-.98,4.32-2.09l1.08-.86c.29-.24,.62-.55,1.01-.94,.38-.38,.65-.67,.79-.86s.36-.46,.65-.79c.29-.33,.43-.53,.43-.58,.1-.1,.19-.14,.29-.14,.29,0,.59,.25,.9,.76,.31,.5,.47,.91,.47,1.22s-.02,.49-.07,.54c-4.03,4.7-9.07,7.06-15.12,7.06-3.07-.05-5.59-.62-7.56-1.73-1.97-1.1-3.12-2.28-3.46-3.53,.24-.58,.6-1.34,1.08-2.3l2.88-5.62c1.44-2.78,3.02-5.88,4.75-9.29,.53-1.06,1.15-1.58,1.87-1.58s1.26,.19,1.62,.58c.36,.38,.54,.84,.54,1.37l-.5,2.15Zm-2.52,17.06c2.83,0,4.25-1.3,4.25-3.89s-1.46-6.07-4.39-10.44l-.72,1.51-5.26,9.86c1.44,1.98,3.48,2.96,6.12,2.96Z"/></svg>