<?xml version="1.0" encoding="UTF-8"?><svg id="Layer_1" xmlns="http://www.w3.org/2000/svg" viewBox="0 0 301.4 300.27"><defs><style>.cls-1{font-family:SavoyeLetPlain, 'Savoye LET';font-size:42.94px;}.cls-1,.cls-2,.cls-3,.cls-4{fill:#fff;}.cls-3{font-size:121.24px;}.cls-3,.cls-4{font-family:SnellRoundhand, 'Snell Roundhand';}.cls-4{font-size:60.62px;}</style></defs><g><g><path class="cls-2" d="M146.25,268.53h0c-.73,.05-64.64,2.03-101.72-63.59-20.64-36.53-25.51-111.05,35.36-154.35h0c28.87-20.54,59.25-24.74,59.25-24.74h0c-.31,.02-31.01,2.38-60.32,23.22h0C17.06,93.01,21.14,168.82,42.12,205.95c37.67,66.66,101.04,63.99,104.12,62.58Z"/><g><path class="cls-2" d="M115.17,0c-.62,10.58-14.39,19.39-13.04,31.49,0,0,9.27-3.6,12.2-7.75,4.66-6.58,.83-23.74,.83-23.74Z"/><path class="cls-2" d="M3.26,172.9c10.88,3.24,16.73,19.79,29.67,21.34,0,0-1.51-10.56-5.12-14.65-5.73-6.49-24.54-6.69-24.54-6.69Z"/><path class="cls-2" d="M134.36,46.63s-1.14-4.79-8.54-9.6c-5.67-3.68-14.93,.78-14.93,.78,4.55,3.27,5.26,4.42,8.13,5.93,5.44,2.88,9.8,1.55,15.35,2.88Z"/><path class="cls-2" d="M89.13,73.84s-4.49-4.44-16.06-5.53c-8.87-.84-16.35,8.86-16.35,8.86,7.33,1,8.89,1.83,13.15,1.89,8.07,.12,12.11-3.64,19.26-5.22Z"/><path class="cls-2" d="M60.34,124.74s-6.21-2.04-16.87,2.91c-8.17,3.79-9.69,17.26-9.69,17.26,6.91-2.83,8.7-2.83,12.45-4.98,7.1-4.09,8.68-9.89,14.11-15.18Z"/><path class="cls-2" d="M64.87,98.93s-5.3-3.9-16.25-1.21c-8.39,2.06-12.72,16.61-12.72,16.61,7.01-1.32,8.67-.85,12.61-2.26,7.46-2.67,10.19-8.7,16.36-13.14Z"/><path class="cls-2" d="M45.06,36.03s6.3,3.03,11.39,14.72c3.9,8.96-3.99,20.42-3.99,20.42-3.56-7.29-4.98-8.61-6.49-13.04-2.86-8.4-.19-14.02-.91-22.1Z"/><path class="cls-2" d="M0,119.34s6.91-1.02,17.68,5.81c8.25,5.24,8.13,19.15,8.13,19.15-7.03-4.04-8.95-4.35-12.68-7.17-7.07-5.36-8.01-11.51-13.13-17.8Z"/><path class="cls-2" d="M17.76,77.29s7.17,1.37,14.11,12.16c5.32,8.27-1.76,22.53-1.76,22.53-4.75-6.61-6.69-8.28-7.67-12.97-1.84-8.79-1.15-12.09-4.68-21.72Z"/><path class="cls-2" d="M76.46,16.83s7.46,8.84,8.19,16.87c.57,6.37-5.99,12.08-5.99,12.08,0,0-8.18-13.33-2.2-28.95Z"/><path class="cls-2" d="M113.87,62.24c-7.44-19.12-22.89-16.76-30.93-11.05,0,0,5.27,5.79,12.06,6.05,9.14,.35,18.87,5,18.87,5Z"/><path class="cls-2" d="M55.11,156.76c-18.73,.71-20.14,16.6-16.87,26.4,0,0,6.35-3.16,8.13-9.7,2.39-8.8,8.74-16.7,8.74-16.7Z"/></g></g><text class="cls-3" transform="translate(50.39 172.17)"><tspan x="0" y="0">T</tspan></text><text class="cls-4" transform="translate(146.25 182.84)"><tspan x="0" y="0">&amp;</tspan></text><text class="cls-3" transform="translate(155.16 248.14)"><tspan x="0" y="0">5</tspan></text><g><path class="cls-2" d="M155.15,268.64h0c.73,.05,64.64,2.03,101.72-63.59,20.64-36.53,25.51-111.05-35.36-154.35h0c-28.87-20.54-59.25-24.74-59.25-24.74h0c.31,.02,31.01,2.38,60.32,23.22h0c61.75,43.93,57.66,119.74,36.68,156.87-37.67,66.66-101.04,63.99-104.12,62.58Z"/><g><path class="cls-2" d="M186.23,.1c.62,10.58,14.39,19.39,13.04,31.49,0,0-9.27-3.6-12.2-7.75-4.66-6.58-.83-23.74-.83-23.74Z"/><path class="cls-2" d="M167.04,46.73s1.14-4.79,8.54-9.6c5.67-3.68,14.93,.78,14.93,.78-4.55,3.27-5.26,4.42-8.13,5.93-5.44,2.88-9.8,1.55-15.35,2.88Z"/><path class="cls-2" d="M212.27,73.94s4.49-4.44,16.06-5.53c8.87-.84,16.35,8.86,16.35,8.86-7.33,1-8.89,1.83-13.15,1.89-8.07,.12-12.11-3.64-19.26-5.22Z"/><path class="cls-2" d="M241.06,124.84s6.21-2.04,16.87,2.91c8.17,3.79,9.69,17.26,9.69,17.26-6.91-2.83-8.7-2.83-12.45-4.98-7.1-4.09-8.68-9.89-14.11-15.18Z"/><path class="cls-2" d="M236.53,99.03s5.3-3.9,16.25-1.21c8.39,2.06,12.72,16.61,12.72,16.61-7.01-1.32-8.67-.85-12.61-2.26-7.46-2.67-10.19-8.7-16.36-13.14Z"/><path class="cls-2" d="M256.34,36.13s-6.3,3.03-11.39,14.72c-3.9,8.96,3.99,20.42,3.99,20.42,3.56-7.29,4.98-8.61,6.49-13.04,2.86-8.4,.19-14.02,.91-22.1Z"/><path class="cls-2" d="M301.4,119.44s-6.91-1.02-17.68,5.81c-8.25,5.24-8.13,19.15-8.13,19.15,7.03-4.04,8.95-4.35,12.68-7.17,7.07-5.36,8.01-11.51,13.13-17.8Z"/><path class="cls-2" d="M283.64,77.4s-7.17,1.37-14.11,12.16c-5.32,8.27,1.76,22.53,1.76,22.53,4.75-6.61,6.69-8.28,7.67-12.97,1.84-8.79,1.15-12.09,4.68-21.72Z"/><path class="cls-2" d="M224.94,16.94s-7.46,8.84-8.19,16.87c-.57,6.37,5.99,12.08,5.99,12.08,0,0,8.18-13.33,2.2-28.95Z"/><path class="cls-2" d="M187.53,62.34c7.44-19.12,22.89-16.76,30.93-11.05,0,0-5.27,5.79-12.06,6.05-9.14,.35-18.87,5-18.87,5Z"/></g></g><path class="cls-2" d="M298.27,172.17c-10.88,3.24-16.73,19.79-29.67,21.34,0,0,1.51-10.56,5.12-14.65,5.73-6.49,24.54-6.69,24.54-6.69Z"/><path class="cls-2" d="M246.42,156.03c18.73,.71,20.14,16.6,16.87,26.4,0,0-6.35-3.16-8.13-9.7-2.39-8.8-8.74-16.7-8.74-16.7Z"/></g><text class="cls-1" transform="translate(56.17 211.67) rotate(52.45)"><tspan x="0" y="0">B</tspan></text><text class="cls-1" transform="translate(73.84 232.15) rotate(35.05)"><tspan x="0" y="0">a</tspan></text><text class="cls-1" transform="translate(88.11 241.68) rotate(25.24)"><tspan x="0" y="0">k</tspan></text><text class="cls-1" transform="translate(101.3 247.68) rotate(18.85)"><tspan x="0" y="0">e</tspan></text><text class="cls-1" transform="translate(112.52 251.41) rotate(14.49)"><tspan x="0" y="0">r</tspan></text><text class="cls-1" transform="translate(122.72 254.05) rotate(10.58)"><tspan x="0" y="0">y</tspan></text></svg>